<svg width="400" height="423" viewBox="0 0 400 423" fill="none" xmlns="http://www.w3.org/2000/svg">
<g clip-path="url(#clip0_18_36)">
<path d="M290.402 240.036V356.886L307.806 388.74L309.131 391.163H377.803L379.19 240.036H290.402Z" fill="#E6E6E6"/>
<path opacity="0.1" d="M290.402 240.036V356.886L307.806 388.74L308.874 240.036H290.402Z" fill="black"/>
<path d="M124.617 236.919V353.77L107.213 385.624L105.889 388.046H37.2166L35.8291 236.919H124.617Z" fill="#E6E6E6"/>
<path opacity="0.1" d="M124.617 236.919V353.77L107.213 385.624L106.145 236.919H124.617Z" fill="black"/>
<path d="M400 234.583V241.593H26.8115V231.466L61.4943 211.212H369.479L400 234.583Z" fill="#E6E6E6"/>
<path opacity="0.1" d="M400 234.583V241.593H26.8115V231.466L400 234.583Z" fill="black"/>
<path d="M80.2236 269.637H63.5754L56.6388 264.184H87.8536L80.2236 269.637Z" fill="#3F3D56"/>
<path d="M80.2236 292.229H63.5754L56.6388 286.776H87.8536L80.2236 292.229Z" fill="#3F3D56"/>
<path d="M80.2236 324.168H63.5754L56.6388 318.715H87.8536L80.2236 324.168Z" fill="#3F3D56"/>
<path d="M80.2236 356.107H63.5754L56.6388 350.654H87.8536L80.2236 356.107Z" fill="#3F3D56"/>
<path d="M334.796 272.753H351.444L358.381 267.3H327.166L334.796 272.753Z" fill="#3F3D56"/>
<path d="M334.796 295.345H351.444L358.381 289.892H327.166L334.796 295.345Z" fill="#3F3D56"/>
<path d="M334.796 327.284H351.444L358.381 321.831H327.166L334.796 327.284Z" fill="#3F3D56"/>
<path d="M334.796 359.223H351.444L358.381 353.77H327.166L334.796 359.223Z" fill="#3F3D56"/>
<path d="M346.133 76.0853H205.981C205.285 76.0852 204.596 76.2391 203.953 76.5382C203.31 76.8373 202.725 77.2758 202.233 77.8285C201.741 78.3813 201.351 79.0375 201.084 79.7598C200.818 80.482 200.681 81.2561 200.681 82.0378V188.064C200.681 188.846 200.818 189.62 201.084 190.342C201.351 191.064 201.741 191.72 202.233 192.273C202.725 192.826 203.31 193.264 203.953 193.563C204.596 193.863 205.285 194.017 205.981 194.016H259.184L257.191 208.308C257.191 208.308 245.8 215.104 253.809 215.304C261.818 215.504 299.551 215.304 299.551 215.304C299.551 215.304 306.848 215.304 295.279 208.108L293.404 194.016H346.133C346.829 194.017 347.518 193.863 348.161 193.563C348.805 193.264 349.389 192.826 349.881 192.273C350.373 191.72 350.764 191.064 351.03 190.342C351.296 189.62 351.433 188.846 351.433 188.064V82.0378C351.433 81.2561 351.296 80.482 351.03 79.7598C350.764 79.0375 350.373 78.3813 349.881 77.8285C349.389 77.2758 348.805 76.8373 348.161 76.5382C347.518 76.2391 346.829 76.0852 346.133 76.0853Z" fill="#3F3D56"/>
<path d="M346.361 82.3816H205.753V170.73H346.361V82.3816Z" fill="#F2F2F2"/>
<path d="M276.057 80.5827C276.549 80.5827 276.947 80.1352 276.947 79.5833C276.947 79.0313 276.549 78.5838 276.057 78.5838C275.566 78.5838 275.167 79.0313 275.167 79.5833C275.167 80.1352 275.566 80.5827 276.057 80.5827Z" fill="#F2F2F2"/>
<path d="M276.057 189.719C277.925 189.719 279.439 188.019 279.439 185.921C279.439 183.824 277.925 182.123 276.057 182.123C274.189 182.123 272.675 183.824 272.675 185.921C272.675 188.019 274.189 189.719 276.057 189.719Z" fill="#F2F2F2"/>
<path d="M270.788 226.098V228.097H175.032V226.497L175.164 226.098L177.524 218.902H268.83L270.788 226.098Z" fill="#3F3D56"/>
<path d="M307.637 224.141C307.463 224.978 306.804 225.862 305.316 226.697C299.977 229.696 289.12 225.898 289.12 225.898C289.12 225.898 280.754 224.299 280.754 220.101C280.989 219.921 281.234 219.757 281.488 219.611C283.733 218.278 291.176 214.986 304.374 219.751C305.346 220.094 306.214 220.733 306.882 221.597C307.178 221.924 307.401 222.325 307.532 222.767C307.663 223.209 307.699 223.68 307.637 224.141Z" fill="#3F3D56"/>
<path opacity="0.1" d="M307.637 224.141C301.102 226.953 295.276 227.163 289.298 222.5C287.037 220.623 284.299 219.61 281.488 219.611C283.733 218.278 291.176 214.986 304.374 219.751C305.346 220.094 306.215 220.733 306.882 221.597C307.178 221.924 307.401 222.325 307.532 222.767C307.663 223.209 307.699 223.68 307.637 224.141Z" fill="black"/>
<path d="M299.443 222.5C300.721 222.5 301.757 222.142 301.757 221.7C301.757 221.259 300.721 220.901 299.443 220.901C298.165 220.901 297.129 221.259 297.129 221.7C297.129 222.142 298.165 222.5 299.443 222.5Z" fill="#F2F2F2"/>
<path opacity="0.1" d="M270.788 226.098V228.097H175.032V226.498L175.164 226.098H270.788Z" fill="black"/>
<path d="M53.2414 9.50694e-05C52.2696 -0.0895122 51.2964 0.154621 50.451 0.700144C49.6208 1.33861 49.0976 2.45713 48.5635 3.49798C46.5214 7.52509 43.7569 11.032 40.4451 13.7967C38.0328 15.7813 34.966 18.2559 35.3787 21.915C35.5964 23.1234 35.9939 24.2819 36.5545 25.342C38.7799 30.3869 44.8525 34.2856 44.2552 40.0422C46.4661 35.8855 43.5088 33.83 45.7198 29.6733C46.7727 27.6937 48.6018 25.4592 50.1915 26.7023C50.7237 27.1186 51.0733 27.8652 51.6275 28.2304C52.9499 29.1019 54.3568 27.4358 55.5273 26.2557C59.5639 22.1862 65.3042 23.2523 70.3273 24.5203C72.6987 25.1189 75.3034 25.9042 76.7052 28.4495C78.5483 31.7961 74.9541 35.4104 74.0459 39.1941C73.9718 39.5165 73.9683 39.8542 74.0357 40.1785C74.1032 40.5028 74.2395 40.8038 74.4332 41.056C74.6268 41.3082 74.8719 41.5039 75.1476 41.6265C75.4233 41.7491 75.7213 41.7948 76.0161 41.7599C77.5233 41.5929 79.3088 41.4561 79.398 40.7133C81.2942 40.7891 83.6178 40.5479 84.4302 38.3304C84.6786 37.4531 84.8098 36.5392 84.8198 35.6187C85.118 31.8938 86.5257 28.4955 87.4583 24.9503C88.3908 21.405 88.7963 17.2502 87.2225 14.107C86.6609 13.0612 85.9662 12.1131 85.1606 11.2927C76.2297 1.58638 64.4874 -0.0143127 53.2414 9.50694e-05Z" fill="#2F2E41"/>
<path d="M46.1975 47.3133C46.1975 47.3133 48.1398 65.491 41.0179 66.9452C33.896 68.3994 47.4923 93.121 47.4923 93.121L79.8646 97.4836L72.0952 68.3994C72.0952 68.3994 66.9157 66.2181 70.1529 51.6759C73.3901 37.1338 46.1975 47.3133 46.1975 47.3133Z" fill="#FFB8B8"/>
<path d="M26.4504 359.605L29.0405 399.597H42.6363L38.7521 359.605H26.4504Z" fill="#FFB8B8"/>
<path d="M126.157 283.986L128.099 317.433L142.991 310.162L137.163 282.532L126.157 283.986Z" fill="#FFB8B8"/>
<path d="M16.7388 206.913C16.7388 206.913 17.3862 249.085 21.2709 262.9C25.1556 276.715 24.5081 277.442 23.8607 279.624C23.2132 281.805 22.5658 280.351 22.5658 283.986C22.5658 287.622 21.2709 345.063 22.5658 350.153C23.8607 355.243 18.6811 363.968 22.5658 364.695C26.4504 365.422 44.5789 364.695 45.2263 360.333C45.8738 355.97 40.0468 354.516 42.6366 351.607C45.2263 348.699 49.111 289.076 49.111 289.076L58.1752 247.631L75.0088 225.818H110.618L121.625 273.807C121.625 273.807 117.093 287.622 120.33 287.622C123.567 287.622 142.99 291.985 142.99 275.988C142.99 259.992 136.516 212.73 135.221 211.276C133.926 209.822 135.868 204.732 133.926 202.551C131.984 200.369 109.323 185.1 100.907 182.192C92.4897 179.283 80.6824 175.822 80.6824 175.822L16.7388 206.913Z" fill="#2F2E41"/>
<path d="M142.99 304.345C142.99 304.345 133.279 300.71 128.747 311.617C124.214 322.523 126.157 325.432 126.157 325.432C126.157 325.432 141.048 331.248 143.638 328.34C144.765 327.075 148.342 326.635 152.025 326.542C157.634 326.401 159.127 317.489 153.829 315.413C153.671 315.351 153.511 315.298 153.349 315.252C148.17 313.798 142.99 304.345 142.99 304.345Z" fill="#2F2E41"/>
<path d="M60.765 59.3106C71.4922 59.3106 80.1883 49.5445 80.1883 37.4974C80.1883 25.4503 71.4922 15.6842 60.765 15.6842C50.0378 15.6842 41.3417 25.4503 41.3417 37.4974C41.3417 49.5445 50.0378 59.3106 60.765 59.3106Z" fill="#FFB8B8"/>
<path d="M35.5146 76.034C35.5146 76.034 67.2394 83.3051 75.0087 71.6714C82.778 60.0377 86.0152 104.391 86.0152 104.391L89.8999 150.926L84.0729 176.375C84.0729 176.375 53.643 204.005 43.9314 206.186C34.2197 208.367 19.3285 209.822 19.3285 209.822C19.3285 209.822 23.8606 129.113 23.8606 127.659C23.8606 126.204 35.5146 76.034 35.5146 76.034Z" fill="url(#paint0_linear_18_36)"/>
<path d="M45.1629 62.3974C45.1629 62.3974 38.1044 57.8563 36.1621 62.219C34.2198 66.5816 16.0913 77.4882 14.149 77.4882C12.2067 77.4882 18.0337 137.838 15.4439 145.109C12.8541 152.38 0.552664 205.459 7.67455 209.822C14.7964 214.184 9.61688 205.459 16.7388 216.366C23.8607 227.272 58.8226 227.272 60.765 222.91C62.7073 218.547 45.2263 185.827 48.4635 155.289C51.7007 124.75 56.8803 82.578 52.3482 76.7611C47.8161 70.9443 45.1629 62.3974 45.1629 62.3974Z" fill="#2F2E41"/>
<path d="M68.5343 67.3087L69.4361 63.8233C69.4361 63.8233 96.3744 73.8527 97.6693 80.3967C98.9642 86.9406 98.3167 132.748 93.7846 136.384C89.2525 140.019 82.7781 145.836 87.3102 154.562C91.8423 163.287 97.0218 172.739 100.907 173.466C104.791 174.193 111.913 179.283 109.971 184.373C108.028 189.463 84.7204 180.01 84.7204 180.01C84.7204 180.01 69.1817 166.922 69.8292 146.563C70.4766 126.204 68.5343 67.3087 68.5343 67.3087Z" fill="#2F2E41"/>
<path d="M91.1949 153.107L75.6562 185.827C75.6562 185.827 52.9957 212.003 65.9446 214.911C78.8935 217.82 86.0153 190.917 86.0153 190.917L102.849 164.014L91.1949 153.107Z" fill="#FFB8B8"/>
<path d="M54.1876 5.70747C53.4047 5.64232 52.6205 5.81313 51.916 6.20226C51.2791 6.72467 50.7542 7.40028 50.3796 8.17975C48.6527 11.097 46.4016 13.5764 43.7708 15.4588C41.8072 16.8615 39.3106 18.6105 39.6466 21.1968C39.829 22.0639 40.1536 22.8853 40.6038 23.6189C42.4215 27.2207 43.1452 31.3894 42.6652 35.4942L48.0647 26.6803C48.9218 25.2812 50.4108 23.7018 51.7048 24.5804C52.1381 24.8746 52.4226 25.4023 52.8738 25.6605C53.9503 26.2764 55.0955 25.0989 56.0485 24.2647C59.3344 21.3885 64.0073 22.142 68.0962 23.0382C70.0266 23.4612 72.147 24.0163 73.2881 25.8153C75.1845 28.805 73.2043 33.1248 74.3111 36.5785C74.6209 36.3349 74.884 36.024 75.0848 35.664C75.2856 35.3041 75.4201 34.9026 75.4801 34.4833C77.0238 34.5369 78.9152 34.3664 79.5766 32.7991C79.7778 32.1848 79.885 31.5368 79.8937 30.8824C80.1365 28.2497 81.2824 25.8478 82.0416 23.3421C82.8007 20.8363 83.1308 17.8997 81.8497 15.6781C81.381 14.9254 80.8153 14.255 80.1712 13.689C72.901 6.82863 63.3423 5.69728 54.1876 5.70747Z" fill="#2F2E41"/>
<path d="M91.1948 77.4882L97.2271 79.2864C97.2271 79.2864 111.266 119.66 108.028 147.29C104.791 174.921 102.849 169.104 102.849 169.104C102.849 169.104 97.6693 156.016 86.0153 158.924L91.1948 77.4882Z" fill="#2F2E41"/>
<path d="M27.3474 394.311C25.7862 396.694 26.0992 400.1 24.7162 402.618C23.5174 404.8 21.2581 405.945 19.7586 407.879C19.2802 408.521 18.8536 409.21 18.4841 409.938C17.0931 412.554 15.9625 415.908 17.3324 418.538C18.4344 420.654 20.7508 421.482 22.8752 422.045C25.5604 422.758 28.3502 423.328 31.0663 422.783C33.7825 422.239 36.437 420.371 37.4054 417.47C37.5958 416.74 37.822 416.023 38.0832 415.322C39.5554 412.067 44.173 412.032 45.6797 408.797C46.7341 406.533 45.7648 403.797 44.796 401.485L41.8369 394.425C40.855 392.082 36.8742 393.43 34.7989 392.868C32.0923 392.136 29.2945 391.329 27.3474 394.311Z" fill="#2F2E41"/>
<path d="M5.73218 167.649L32.9248 214.911C32.9248 214.911 49.7584 238.906 54.9379 227.999C60.1175 217.093 36.8095 198.915 36.8095 198.915L19.3285 162.56L5.73218 167.649Z" fill="#FFB8B8"/>
<path d="M19.3285 78.9424L14.149 77.4882C14.149 77.4882 3.78986 81.1237 1.20009 96.393C-1.38968 111.662 0.552643 172.739 3.78986 173.466C7.02708 174.193 19.7785 162.832 21.8196 165.24C23.8606 167.649 17.3862 155.289 19.3285 148.745C21.2708 142.201 19.3285 78.9424 19.3285 78.9424Z" fill="#2F2E41"/>
<path d="M262.749 111.398H246.015V115.922H262.749V111.398Z" fill="#3B94CB"/>
<path d="M320.698 111.398H314.81V115.922H320.698V111.398Z" fill="#3B94CB"/>
<path d="M332.473 111.398H326.585V115.922H332.473V111.398Z" fill="#3B94CB"/>
<path d="M308.612 111.398H268.637V115.922H308.612V111.398Z" fill="#3B94CB"/>
<path d="M241.676 140.632H224.943V145.156H241.676V140.632Z" fill="#3B94CB"/>
<path d="M299.625 140.632H293.737V145.156H299.625V140.632Z" fill="#3B94CB"/>
<path d="M311.401 140.632H305.513V145.156H311.401V140.632Z" fill="#3B94CB"/>
<path d="M287.54 140.632H247.564V145.156H287.54V140.632Z" fill="#3B94CB"/>
<path d="M310.781 121.491H294.047V126.015H310.781V121.491Z" fill="#3B94CB"/>
<path d="M333.403 121.491H316.669V126.015H333.403V121.491Z" fill="#3B94CB"/>
<path d="M230.83 121.491H224.943V126.015H230.83V121.491Z" fill="#3B94CB"/>
<path d="M242.606 121.491H236.718V126.015H242.606V121.491Z" fill="#3B94CB"/>
<path d="M288.469 121.491H248.494V126.015H288.469V121.491Z" fill="#3B94CB"/>
<path d="M276.074 131.235H259.34V135.759H276.074V131.235Z" fill="#3B94CB"/>
<path d="M253.452 131.235H236.718V135.759H253.452V131.235Z" fill="#3B94CB"/>
<path d="M230.83 131.235H224.943V135.759H230.83V131.235Z" fill="#3B94CB"/>
<path d="M333.403 131.235H327.515V135.759H333.403V131.235Z" fill="#3B94CB"/>
<path d="M321.627 131.235H281.652V135.759H321.627V131.235Z" fill="#3B94CB"/>
</g>
<defs>
<linearGradient id="paint0_linear_18_36" x1="54.6142" y1="69.7263" x2="54.6142" y2="209.822" gradientUnits="userSpaceOnUse">
<stop offset="0.266199" stop-color="#3E3BCB"/>
<stop offset="0.776042" stop-color="#3BCBA0"/>
</linearGradient>
<clipPath id="clip0_18_36">
<rect width="400" height="423" fill="white"/>
</clipPath>
</defs>
</svg>
